HIERARCHY
ROOT Hips
{
	OFFSET 0.000000 87.230942 0.000000
	CHANNELS 6 Xposition Yposition Zposition Xrotation Yrotation Zrotation
	JOINT Pelvis
	{
		OFFSET 0.000000 0.000000 0.000000
		CHANNELS 3 Xrotation Yrotation Zrotation
		JOINT LeftUpLeg
		{
			OFFSET 12.017000 -9.376404 -2.439400
			CHANNELS 3 Xrotation Yrotation Zrotation
			JOINT LeftLeg
			{
				OFFSET -0.007312 -32.846973 2.110600
				CHANNELS 3 Xrotation Yrotation Zrotation
				JOINT LeftFoot
				{
					OFFSET 0.007312 -32.065170 -0.570400
					CHANNELS 3 Xrotation Yrotation Zrotation
					JOINT LeftToeBase
					{
						OFFSET 0.728300 -11.045900 13.180700
						CHANNELS 3 Xrotation Yrotation Zrotation
						End Site
						{
							OFFSET 0.000000 17.212589 0.000000
						}
					}
				}
				JOINT LeftPantLeg
				{
					OFFSET 0.002788 -16.709013 -3.143600
					CHANNELS 3 Xrotation Yrotation Zrotation
					End Site
					{
						OFFSET -0.605125 24.528742 0.000000
					}
				}
			}
			JOINT Left_Butt
			{
				OFFSET -6.630234 1.326584 -3.183700
				CHANNELS 3 Xrotation Yrotation Zrotation
				End Site
				{
					OFFSET -0.498041 20.188049 0.000000
				}
			}
		}
		JOINT RightUpLeg
		{
			OFFSET -11.717000 -9.376404 -2.439400
			CHANNELS 3 Xrotation Yrotation Zrotation
			JOINT RightLeg
			{
				OFFSET -0.003241 -32.846912 2.110600
				CHANNELS 3 Xrotation Yrotation Zrotation
				JOINT RightFoot
				{
					OFFSET 0.003241 -32.065136 -0.570500
					CHANNELS 3 Xrotation Yrotation Zrotation
					JOINT RightToeBase
					{
						OFFSET -0.728300 -11.045901 13.180700
						CHANNELS 3 Xrotation Yrotation Zrotation
						End Site
						{
							OFFSET 0.000000 17.212593 0.000000
						}
					}
				}
				JOINT RightPantLeg
				{
					OFFSET 0.008142 -16.708982 -3.143700
					CHANNELS 3 Xrotation Yrotation Zrotation
					End Site
					{
						OFFSET 0.605088 24.528715 0.000000
					}
				}
			}
			JOINT Right_Butt
			{
				OFFSET 6.630732 1.326584 -3.183700
				CHANNELS 3 Xrotation Yrotation Zrotation
				End Site
				{
					OFFSET 0.498015 20.188240 0.000000
				}
			}
		}
	}
	JOINT Spine
	{
		OFFSET -0.062400 7.848404 3.918300
		CHANNELS 3 Xrotation Yrotation Zrotation
		JOINT Spine1
		{
			OFFSET -0.072800 11.422302 0.713400
			CHANNELS 3 Xrotation Yrotation Zrotation
			JOINT Spine2
			{
				OFFSET -0.083200 13.054001 -1.931600
				CHANNELS 3 Xrotation Yrotation Zrotation
				JOINT Neck
				{
					OFFSET -0.092200 14.121796 -5.138800
					CHANNELS 3 Xrotation Yrotation Zrotation
					JOINT Head
					{
						OFFSET 0.000200 10.447403 -0.842000
						CHANNELS 3 Xrotation Yrotation Zrotation
						JOINT Visor
						{
							OFFSET 0.457100 25.671204 16.550400
							CHANNELS 3 Xrotation Yrotation Zrotation
							End Site
							{
								OFFSET 0.000000 26.061493 0.000000
							}
						}
						JOINT HairMidA
						{
							OFFSET 0.459400 31.585403 8.437400
							CHANNELS 3 Xrotation Yrotation Zrotation
							End Site
							{
								OFFSET 0.000000 26.061493 0.000000
							}
						}
						JOINT HairMidB
						{
							OFFSET 0.464000 33.309204 -8.389700
							CHANNELS 3 Xrotation Yrotation Zrotation
							End Site
							{
								OFFSET 0.000000 26.061493 0.000000
							}
						}
						JOINT HairMidC
						{
							OFFSET 0.466600 27.991196 -17.375099
							CHANNELS 3 Xrotation Yrotation Zrotation
							End Site
							{
								OFFSET 0.000000 26.061493 0.000000
							}
						}
						JOINT HairMidD
						{
							OFFSET 0.467700 17.888092 -21.169500
							CHANNELS 3 Xrotation Yrotation Zrotation
							End Site
							{
								OFFSET 0.000000 26.061493 0.000000
							}
						}
						JOINT HairMidE
						{
							OFFSET 5.325700 3.514603 -14.369699
							CHANNELS 3 Xrotation Yrotation Zrotation
							End Site
							{
								OFFSET 0.000000 26.061493 0.000000
							}
						}
						JOINT HairMidF
						{
							OFFSET -4.394100 3.514603 -14.372400
							CHANNELS 3 Xrotation Yrotation Zrotation
							End Site
							{
								OFFSET 0.000000 26.061493 0.000000
							}
						}
						JOINT HairLeftA
						{
							OFFSET 15.319900 25.746506 2.623300
							CHANNELS 3 Xrotation Yrotation Zrotation
							End Site
							{
								OFFSET 0.000000 26.061493 0.000000
							}
						}
						JOINT HairLeftB
						{
							OFFSET 12.619500 29.289398 -8.731499
							CHANNELS 3 Xrotation Yrotation Zrotation
							End Site
							{
								OFFSET 0.000000 26.061493 0.000000
							}
						}
						JOINT HairLeftC
						{
							OFFSET 15.714800 15.959900 2.909800
							CHANNELS 3 Xrotation Yrotation Zrotation
							End Site
							{
								OFFSET 0.000000 26.061493 0.000000
							}
						}
						JOINT HairLeftD
						{
							OFFSET 16.101700 18.437408 -7.553200
							CHANNELS 3 Xrotation Yrotation Zrotation
							End Site
							{
								OFFSET 0.000000 26.061493 0.000000
							}
						}
						JOINT HairLeftE
						{
							OFFSET 9.731900 17.915009 -18.316799
							CHANNELS 3 Xrotation Yrotation Zrotation
							End Site
							{
								OFFSET 0.000000 26.061493 0.000000
							}
						}
						JOINT HairLeftF
						{
							OFFSET 11.204300 4.953598 -9.668100
							CHANNELS 3 Xrotation Yrotation Zrotation
							End Site
							{
								OFFSET 0.000000 26.061493 0.000000
							}
						}
						JOINT HairRightA
						{
							OFFSET -14.397900 25.746307 2.615100
							CHANNELS 3 Xrotation Yrotation Zrotation
							End Site
							{
								OFFSET 0.000000 26.061493 0.000000
							}
						}
						JOINT HairRightB
						{
							OFFSET -11.691200 29.289200 -8.738199
							CHANNELS 3 Xrotation Yrotation Zrotation
							End Site
							{
								OFFSET 0.000000 26.061493 0.000000
							}
						}
						JOINT HairRightC
						{
							OFFSET -14.792900 15.959702 2.901400
							CHANNELS 3 Xrotation Yrotation Zrotation
							End Site
							{
								OFFSET 0.000000 26.061493 0.000000
							}
						}
						JOINT HairRightD
						{
							OFFSET -15.174000 18.437195 -7.561900
							CHANNELS 3 Xrotation Yrotation Zrotation
							End Site
							{
								OFFSET 0.000000 26.061493 0.000000
							}
						}
						JOINT HairRightE
						{
							OFFSET -8.798200 17.914902 -18.322001
							CHANNELS 3 Xrotation Yrotation Zrotation
							End Site
							{
								OFFSET 0.000000 26.061493 0.000000
							}
						}
						JOINT HairRightF
						{
							OFFSET -10.275200 4.953506 -9.674099
							CHANNELS 3 Xrotation Yrotation Zrotation
							End Site
							{
								OFFSET 0.000000 26.061493 0.000000
							}
						}
					}
				}
				JOINT LeftShoulder
				{
					OFFSET 5.133500 7.341202 -1.867600
					CHANNELS 3 Xrotation Yrotation Zrotation
					JOINT LeftArm
					{
						OFFSET 8.072663 0.936867 -2.176600
						CHANNELS 3 Xrotation Yrotation Zrotation
						JOINT LeftForeArm
						{
							OFFSET 31.271999 0.000000 0.000000
							CHANNELS 3 Xrotation Yrotation Zrotation
							JOINT LeftHand
							{
								OFFSET 31.771030 0.000000 0.000000
								CHANNELS 3 Xrotation Yrotation Zrotation
								JOINT LeftHandThumb1
								{
									OFFSET 2.886520 -2.557846 4.416640
									CHANNELS 3 Xrotation Yrotation Zrotation
									JOINT LeftHandThumb2
									{
										OFFSET 2.371025 -1.368912 1.368911
										CHANNELS 3 Xrotation Yrotation Zrotation
										JOINT LeftHandThumb3
										{
											OFFSET 2.243378 -1.295212 1.295213
											CHANNELS 3 Xrotation Yrotation Zrotation
											End Site
											{
												OFFSET -0.332611 2.876945 0.020015
											}
										}
									}
								}
								JOINT LeftHandIndex1
								{
									OFFSET 8.568985 -0.641945 3.119977
									CHANNELS 3 Xrotation Yrotation Zrotation
									JOINT LeftHandIndex2
									{
										OFFSET 3.348503 0.000000 0.000000
										CHANNELS 3 Xrotation Yrotation Zrotation
										JOINT LeftHandIndex3
										{
											OFFSET 3.314552 0.000000 0.000000
											CHANNELS 3 Xrotation Yrotation Zrotation
											End Site
											{
												OFFSET -1.032898 3.075485 0.678796
											}
										}
									}
								}
								JOINT LeftHandMiddle1
								{
									OFFSET 8.124603 0.000000 0.000000
									CHANNELS 3 Xrotation Yrotation Zrotation
									JOINT LeftHandMiddle2
									{
										OFFSET 4.166275 0.000000 0.000000
										CHANNELS 3 Xrotation Yrotation Zrotation
										JOINT LeftHandMiddle3
										{
											OFFSET 3.018135 0.000000 0.000000
											CHANNELS 3 Xrotation Yrotation Zrotation
											End Site
											{
												OFFSET -1.032700 2.767982 0.617226
											}
										}
									}
								}
								JOINT LeftHandRing1
								{
									OFFSET 8.571686 -0.031357 -2.884048
									CHANNELS 3 Xrotation Yrotation Zrotation
									JOINT LeftHandRing2
									{
										OFFSET 3.671181 0.000000 0.000000
										CHANNELS 3 Xrotation Yrotation Zrotation
										JOINT LeftHandRing3
										{
											OFFSET 2.728851 0.000000 0.000000
											CHANNELS 3 Xrotation Yrotation Zrotation
											End Site
											{
												OFFSET -0.815796 2.539223 0.577389
											}
										}
									}
								}
								JOINT LeftHandPinky1
								{
									OFFSET 7.854515 -0.675232 -5.213020
									CHANNELS 3 Xrotation Yrotation Zrotation
									JOINT LeftHandPinky2
									{
										OFFSET 3.068596 0.000000 0.000000
										CHANNELS 3 Xrotation Yrotation Zrotation
										JOINT LeftHandPinky3
										{
											OFFSET 2.396042 0.000000 0.000000
											CHANNELS 3 Xrotation Yrotation Zrotation
											End Site
											{
												OFFSET -0.524597 2.267998 0.567429
											}
										}
									}
								}
							}
							JOINT LeftSleeve
							{
								OFFSET 19.684509 -0.200119 0.476146
								CHANNELS 3 Xrotation Yrotation Zrotation
								End Site
								{
									OFFSET -0.031017 25.731133 -0.002868
								}
							}
						}
					}
				}
				JOINT RightShoulder
				{
					OFFSET -4.395900 7.341202 -1.870200
					CHANNELS 3 Xrotation Yrotation Zrotation
					JOINT RightArm
					{
						OFFSET -8.071453 0.936867 -2.181100
						CHANNELS 3 Xrotation Yrotation Zrotation
						JOINT RightForeArm
						{
							OFFSET -31.272011 0.000000 0.000000
							CHANNELS 3 Xrotation Yrotation Zrotation
							JOINT RightHand
							{
								OFFSET -31.771019 0.000000 0.000000
								CHANNELS 3 Xrotation Yrotation Zrotation
								JOINT RightHandThumb1
								{
									OFFSET -2.886520 -2.557808 4.416626
									CHANNELS 3 Xrotation Yrotation Zrotation
									JOINT RightHandThumb2
									{
										OFFSET -2.371056 -1.368927 1.368928
										CHANNELS 3 Xrotation Yrotation Zrotation
										JOINT RightHandThumb3
										{
											OFFSET -2.243362 -1.295204 1.295206
											CHANNELS 3 Xrotation Yrotation Zrotation
											End Site
											{
												OFFSET 0.332642 2.876938 0.020047
											}
										}
									}
								}
								JOINT RightHandIndex1
								{
									OFFSET -8.568993 -0.641953 3.120017
									CHANNELS 3 Xrotation Yrotation Zrotation
									JOINT RightHandIndex2
									{
										OFFSET -3.348518 0.000000 0.000000
										CHANNELS 3 Xrotation Yrotation Zrotation
										JOINT RightHandIndex3
										{
											OFFSET -3.314552 0.000000 0.000000
											CHANNELS 3 Xrotation Yrotation Zrotation
											End Site
											{
												OFFSET 1.032898 3.075478 0.678804
											}
										}
									}
								}
								JOINT RightHandMiddle1
								{
									OFFSET -8.124588 0.000000 0.000000
									CHANNELS 3 Xrotation Yrotation Zrotation
									JOINT RightHandMiddle2
									{
										OFFSET -4.166275 0.000000 0.000000
										CHANNELS 3 Xrotation Yrotation Zrotation
										JOINT RightHandMiddle3
										{
											OFFSET -3.018097 0.000000 0.000000
											CHANNELS 3 Xrotation Yrotation Zrotation
											End Site
											{
												OFFSET 1.032700 2.767937 0.617197
											}
										}
									}
								}
								JOINT RightHandRing1
								{
									OFFSET -8.571747 -0.031349 -2.884061
									CHANNELS 3 Xrotation Yrotation Zrotation
									JOINT RightHandRing2
									{
										OFFSET -3.671204 0.000000 0.000000
										CHANNELS 3 Xrotation Yrotation Zrotation
										JOINT RightHandRing3
										{
											OFFSET -2.728874 0.000000 0.000000
											CHANNELS 3 Xrotation Yrotation Zrotation
											End Site
											{
												OFFSET 0.815804 2.539261 0.577413
											}
										}
									}
								}
								JOINT RightHandPinky1
								{
									OFFSET -7.854561 -0.675247 -5.212970
									CHANNELS 3 Xrotation Yrotation Zrotation
									JOINT RightHandPinky2
									{
										OFFSET -3.068550 0.000000 0.000000
										CHANNELS 3 Xrotation Yrotation Zrotation
										JOINT RightHandPinky3
										{
											OFFSET -2.395981 0.000000 0.000000
											CHANNELS 3 Xrotation Yrotation Zrotation
											End Site
											{
												OFFSET 0.524605 2.267952 0.567413
											}
										}
									}
								}
							}
							JOINT RightSleeve
							{
								OFFSET -19.684753 -0.200165 0.476065
								CHANNELS 3 Xrotation Yrotation Zrotation
								End Site
								{
									OFFSET 0.031342 25.731255 -0.002917
								}
							}
						}
					}
				}
				JOINT Hood
				{
					OFFSET 0.369700 14.447800 -5.317800
					CHANNELS 3 Xrotation Yrotation Zrotation
					JOINT Hood1
					{
						OFFSET 0.001700 -5.553802 -5.895100
						CHANNELS 3 Xrotation Yrotation Zrotation
						JOINT Hood2
						{
							OFFSET -0.000200 -8.380501 0.763600
							CHANNELS 3 Xrotation Yrotation Zrotation
							End Site
							{
								OFFSET 0.000000 8.415215 0.000000
							}
						}
					}
				}
				JOINT Left_Breast
				{
					OFFSET 5.682500 3.120102 3.188800
					CHANNELS 3 Xrotation Yrotation Zrotation
					End Site
					{
						OFFSET 0.000000 10.528564 0.000000
					}
				}
				JOINT Right_Breast
				{
					OFFSET -4.947600 3.120102 3.185900
					CHANNELS 3 Xrotation Yrotation Zrotation
					End Site
					{
						OFFSET 0.000000 10.528564 0.000000
					}
				}
				JOINT Whistle
				{
					OFFSET 0.368200 11.471298 0.095400
					CHANNELS 3 Xrotation Yrotation Zrotation
					JOINT Whistle1
					{
						OFFSET -0.002000 -6.349899 7.479800
						CHANNELS 3 Xrotation Yrotation Zrotation
						JOINT Whistle2
						{
							OFFSET -0.001300 -8.217598 4.717600
							CHANNELS 3 Xrotation Yrotation Zrotation
							End Site
							{
								OFFSET 0.000000 9.475479 0.000000
							}
						}
					}
				}
			}
		}
		JOINT Belly
		{
			OFFSET 0.212400 1.593002 3.163700
			CHANNELS 3 Xrotation Yrotation Zrotation
			End Site
			{
				OFFSET 0.000000 7.496635 0.000000
			}
		}
	}
	JOINT FitGrandmaFacialAnim_Joint
	{
		OFFSET 1.150000 -86.211197 -1.220100
		CHANNELS 3 Xrotation Yrotation Zrotation
		End Site
		{
			OFFSET 0.000000 31.666618 0.000000
		}
	}
}
MOTION
Frames: 4
Frame Time: 0.016667
162.968689 14.234703 -34.611267 54.351425 205.604895 230.855695 0.000003 0.000002 -0.000000 -67.057561 12.085953 1.737851 118.527824 -3.670254 -3.249702 -17.734521 -2.912642 -5.966360 -0.000001 0.000000 0.000000 0.000000 -0.000000 -0.000001 0.000002 -0.000000 0.000000 -96.276455 -6.119958 3.478827 85.953430 2.330377 2.812833 -18.481380 0.596443 15.093724 0.000001 0.000000 -0.000002 0.000001 0.000003 -0.000000 0.000001 -0.000000 0.000001 12.103414 2.886937 1.643555 24.200993 5.707152 2.256770 24.200988 5.707171 2.256772 56.768089 -4.708981 -18.365643 -27.541968 -9.260018 20.113305 0.000001 -0.000002 -0.000000 0.000001 -0.000002 -0.000000 0.000001 -0.000002 -0.000000 0.000001 -0.000002 -0.000000 0.000001 -0.000002 -0.000000 0.000001 -0.000002 -0.000000 0.000001 -0.000002 -0.000000 0.000001 -0.000002 -0.000000 0.000001 -0.000002 -0.000000 0.000001 -0.000002 -0.000000 0.000001 -0.000002 -0.000000 0.000001 -0.000002 -0.000000 0.000001 -0.000002 -0.000000 0.000001 -0.000002 -0.000000 0.000001 -0.000002 -0.000000 0.000001 -0.000002 -0.000000 0.000001 -0.000002 -0.000000 0.000001 -0.000002 -0.000000 0.000001 -0.000002 -0.000000 0.826469 4.176653 27.061203 -21.500734 -16.600706 -7.566973 0.248398 -108.744719 0.233909 -1.960202 7.066433 19.245286 -3.269892 -2.950320 2.445901 6.363642 5.687392 -6.261545 -0.000002 0.000001 -0.000000 -2.181512 1.448983 -9.293708 0.033632 0.552077 -14.681526 0.000002 0.000000 -0.000001 -0.369299 0.913319 -21.544720 -0.502617 -1.800290 -26.483411 -0.000001 0.000001 -0.000003 -0.931031 3.368105 -28.899207 -0.351982 -2.121490 -21.850815 0.000003 -0.000001 -0.000002 0.523300 5.278449 -26.022915 -0.846858 -5.236662 -31.985434 -0.000002 -0.000001 -0.000001 0.000000 -0.000002 -0.000001 2.759748 8.250641 -10.588915 -57.649044 -5.834111 42.145358 0.058649 119.763406 -0.066556 30.555070 10.082323 -24.848682 6.507453 5.944004 -8.205793 0.308326 -2.673175 -2.026419 -0.000001 -0.000001 -0.000002 -3.218595 0.338187 -13.313575 0.023720 0.208815 -0.000074 0.000001 0.000001 -0.000000 -2.741310 -2.097335 -13.344325 0.039707 -0.113986 0.011392 -0.000000 -0.000001 -0.000005 -2.221654 -6.757291 -8.023615 -0.013511 0.271969 -0.000045 -0.000003 0.000003 0.000000 2.103482 -7.884684 4.939294 -0.291348 5.357237 14.254933 -0.000004 0.000002 0.000003 -0.000001 -0.000000 -0.000001 0.000000 0.000000 -0.000000 0.000000 0.000000 -0.000000 0.000000 0.000000 -0.000000 0.000000 0.000000 -0.000000 0.000000 0.000000 -0.000000 0.000000 -0.000000 0.000001 0.000001 -0.000000 0.000001 0.000001 -0.000000 0.000001 -0.000000 0.000003 0.000001 0.000003 0.000002 -0.000000 
164.122528 13.056847 -35.017014 55.020924 200.298890 235.404218 0.000002 0.000001 -0.000000 -61.804141 10.546711 0.784983 118.304778 -3.679288 -3.254802 -18.164605 -4.133419 -8.391775 -0.000000 0.000000 0.000001 0.000000 -0.000001 0.000001 0.000000 0.000002 0.000002 -91.739324 -7.439480 3.615451 86.732700 2.255070 2.822896 -20.208470 0.327358 13.633498 0.000003 -0.000001 -0.000001 -0.000001 -0.000001 0.000002 -0.000000 -0.000001 -0.000002 12.108699 3.067002 2.008588 24.205456 6.078917 2.810429 24.205473 6.078899 2.810421 57.480352 -3.925603 -18.447422 -25.082703 -8.467468 21.826284 -0.000003 0.000001 0.000003 -0.000003 0.000001 0.000003 -0.000003 0.000001 0.000003 -0.000003 0.000001 0.000003 -0.000003 0.000001 0.000003 -0.000003 0.000001 0.000003 -0.000003 0.000001 0.000003 -0.000003 0.000001 0.000003 -0.000003 0.000001 0.000003 -0.000003 0.000001 0.000003 -0.000003 0.000001 0.000003 -0.000003 0.000001 0.000003 -0.000003 0.000001 0.000003 -0.000003 0.000001 0.000003 -0.000003 0.000001 0.000003 -0.000003 0.000001 0.000003 -0.000003 0.000001 0.000003 -0.000003 0.000001 0.000003 -0.000003 0.000001 0.000003 0.899515 3.368698 24.482579 -14.606307 -19.867034 -3.868313 0.354719 -104.424372 0.337893 -4.669639 6.592303 21.857661 -3.133903 -3.128517 2.072181 6.459733 5.436988 -6.660194 0.000001 0.000002 -0.000001 -2.376742 1.613019 -8.894092 0.030289 0.532996 -14.400267 -0.000000 -0.000001 0.000002 -0.361510 0.964855 -21.923724 -0.516456 -1.835422 -26.743245 -0.000001 -0.000002 0.000005 -0.959565 3.243000 -28.884266 -0.358827 -2.130768 -22.188213 0.000000 0.000000 0.000002 0.422600 4.920214 -26.484291 -0.811176 -5.131008 -31.831895 -0.000001 0.000000 -0.000003 0.000000 0.000001 0.000002 3.074224 7.560858 -12.803203 -40.315458 -8.927975 48.040125 0.085517 116.790689 -0.090057 40.428590 7.346897 -27.686430 9.080930 6.991082 -6.854920 -0.534567 -0.974996 -1.909479 -0.000003 -0.000000 -0.000002 -4.050260 -0.157106 -12.989638 0.010722 0.010875 -0.000019 0.000004 0.000000 -0.000000 -3.380165 -2.013610 -16.151135 0.066074 -0.021673 0.003130 -0.000002 0.000001 -0.000003 -4.069082 -5.491761 -3.840702 0.001730 0.401749 0.000038 0.000005 -0.000003 -0.000001 0.468036 -4.535774 10.858793 -0.591295 6.307208 20.037569 0.000001 -0.000001 -0.000000 -0.000001 0.000002 -0.000000 -0.000001 0.000000 -0.000003 -0.000001 0.000000 -0.000003 -0.000001 0.000000 -0.000003 -0.000001 0.000000 -0.000003 -0.000001 0.000000 -0.000003 -0.000001 0.000000 -0.000001 0.000002 0.000002 0.000001 0.000002 0.000002 0.000001 -0.000000 0.000000 -0.000001 0.000002 0.000001 -0.000000 
165.436188 12.321487 -35.429401 55.055676 194.745373 240.185077 -0.000002 -0.000001 0.000001 -57.542916 9.422424 -0.189831 118.041774 -3.530357 -3.254463 -17.833837 -4.329047 -9.575466 -0.000000 -0.000001 0.000000 -0.000001 -0.000001 0.000002 0.000002 0.000001 0.000001 -87.448674 -7.978462 3.104833 86.935290 2.173190 2.823012 -21.753218 0.138580 12.296673 0.000001 -0.000003 -0.000001 0.000000 -0.000000 0.000004 0.000002 -0.000003 -0.000002 12.048424 3.133605 2.308218 24.076791 6.263979 3.298514 24.076789 6.263983 3.298500 58.211844 -3.060411 -17.835306 -23.111415 -7.490911 22.712633 -0.000000 -0.000001 -0.000000 -0.000000 -0.000001 -0.000000 -0.000000 -0.000001 -0.000000 -0.000000 -0.000001 -0.000000 -0.000000 -0.000001 -0.000000 -0.000000 -0.000001 -0.000000 -0.000000 -0.000001 -0.000000 -0.000000 -0.000001 -0.000000 -0.000000 -0.000001 -0.000000 -0.000000 -0.000001 -0.000000 -0.000000 -0.000001 -0.000000 -0.000000 -0.000001 -0.000000 -0.000000 -0.000001 -0.000000 -0.000000 -0.000001 -0.000000 -0.000000 -0.000001 -0.000000 -0.000000 -0.000001 -0.000000 -0.000000 -0.000001 -0.000000 -0.000000 -0.000001 -0.000000 -0.000000 -0.000001 -0.000000 1.106686 2.229514 21.865695 -8.044690 -21.912758 0.331387 0.504268 -100.515523 0.483731 -7.464038 4.378070 27.133087 -3.030164 -3.261362 1.789479 6.532174 5.246524 -6.961242 -0.000002 -0.000000 -0.000001 -2.566434 1.768156 -8.498500 0.026918 0.514253 -14.103381 -0.000001 0.000000 0.000001 -0.349282 1.015423 -22.255693 -0.529871 -1.867100 -26.970409 -0.000000 0.000000 -0.000003 -1.000496 3.115064 -28.867692 -0.363713 -2.137663 -22.483362 0.000000 -0.000002 0.000002 0.306743 4.583564 -26.815809 -0.771157 -5.026559 -31.633642 -0.000000 -0.000001 0.000002 0.000000 0.000001 -0.000002 3.006491 6.979980 -13.209511 -24.883267 -9.196749 51.059315 0.144375 108.653502 -0.132512 49.791598 0.108400 -33.736473 11.232868 7.962254 -5.436334 -0.991349 -0.153154 -1.907229 -0.000001 -0.000000 0.000002 -4.856081 -0.741987 -11.696877 -0.000007 -0.423348 0.042099 -0.000002 -0.000000 -0.000000 -4.002439 -1.861617 -17.305966 0.077293 0.012106 0.000174 -0.000003 0.000003 -0.000000 -6.095271 -4.440948 1.307388 -0.008296 0.878750 3.650597 -0.000000 -0.000001 -0.000001 -1.644612 -1.402765 16.800529 -0.986752 7.222215 25.836229 0.000001 0.000001 0.000001 -0.000001 0.000000 0.000003 0.000001 -0.000002 0.000001 0.000001 -0.000002 0.000001 0.000001 -0.000002 0.000001 0.000001 -0.000002 0.000001 0.000001 -0.000002 0.000001 0.000001 -0.000002 0.000003 0.000002 0.000000 -0.000001 0.000002 0.000000 -0.000001 -0.000001 0.000002 -0.000002 -0.000002 -0.000001 0.000001 
167.060577 11.728371 -35.886959 54.540119 188.675383 245.307692 -0.000001 -0.000002 0.000001 -55.100243 9.075944 -1.160896 117.514443 -3.157945 -3.245596 -15.777208 -2.714684 -8.457656 -0.000000 0.000002 0.000000 0.000002 -0.000004 -0.000002 -0.000000 0.000001 0.000002 -84.297846 -7.415123 1.749318 86.548708 2.097823 2.812825 -22.731626 0.332053 11.453160 -0.000001 -0.000001 -0.000001 -0.000001 0.000001 -0.000000 -0.000000 0.000001 -0.000001 11.867226 3.071217 2.486017 23.705761 6.193829 3.640063 23.705765 6.193820 3.640058 58.660267 -2.363911 -16.804108 -22.201518 -6.647942 22.500074 -0.000001 0.000000 -0.000002 -0.000001 0.000000 -0.000002 -0.000001 0.000000 -0.000002 -0.000001 0.000000 -0.000002 -0.000001 0.000000 -0.000002 -0.000001 0.000000 -0.000002 -0.000001 0.000000 -0.000002 -0.000001 0.000000 -0.000002 -0.000001 0.000000 -0.000002 -0.000001 0.000000 -0.000002 -0.000001 0.000000 -0.000002 -0.000001 0.000000 -0.000002 -0.000001 0.000000 -0.000002 -0.000001 0.000000 -0.000002 -0.000001 0.000000 -0.000002 -0.000001 0.000000 -0.000002 -0.000001 0.000000 -0.000002 -0.000001 0.000000 -0.000002 -0.000001 0.000000 -0.000002 1.311811 1.043490 19.573574 -2.184761 -21.315400 2.321626 0.552993 -99.110423 0.528568 -7.420668 0.340507 36.334810 -1.617112 -3.443767 1.781887 6.670561 5.016645 -7.429574 0.000003 0.000002 0.000000 -2.740591 1.901280 -8.112374 0.023661 0.496713 -13.783383 0.000001 -0.000001 0.000000 -0.335101 1.060532 -22.530900 -0.542015 -1.893764 -27.158430 -0.000001 0.000002 -0.000001 -1.054354 2.979439 -28.849152 -0.366855 -2.142700 -22.727717 0.000001 -0.000002 -0.000003 0.166329 4.266777 -27.072761 -0.732809 -4.937667 -31.470923 -0.000006 0.000003 -0.000000 0.000001 0.000000 0.000002 2.058687 6.641531 -9.781837 -17.790262 -3.547549 48.458707 0.564859 93.753765 -0.535735 44.210913 -8.940495 -42.468959 12.926588 8.813800 -4.083780 -1.071279 -0.171210 -2.021256 -0.000002 0.000002 0.000000 -5.540305 -1.397982 -9.917169 0.014399 -0.663867 4.500994 0.000002 0.000001 0.000002 -4.569639 -1.700309 -16.210599 0.061355 -0.036729 0.004485 -0.000002 -0.000001 -0.000002 -8.208146 -3.920781 6.976334 -0.122009 1.728505 11.591797 -0.000000 -0.000002 -0.000003 -4.173451 1.073062 22.333088 -1.431504 8.024087 31.180900 -0.000000 -0.000001 0.000001 -0.000001 -0.000002 0.000006 -0.000000 0.000001 0.000001 -0.000000 0.000001 0.000001 -0.000000 0.000001 0.000001 -0.000000 0.000001 0.000001 -0.000000 0.000001 0.000001 -0.000000 0.000001 0.000003 0.000002 -0.000001 0.000000 0.000002 -0.000001 0.000000 0.000000 -0.000000 -0.000001 -0.000001 -0.000002 0.000001 
